<?xml version="1.0" encoding="utf-8"?>
<!-- Generator: Adobe Illustrator 23.0.3, SVG Export Plug-In . SVG Version: 6.00 Build 0)  -->
<!DOCTYPE svg PUBLIC "-//W3C//DTD SVG 1.1//EN" "http://www.w3.org/Graphics/SVG/1.1/DTD/svg11.dtd" [
	<!ENTITY ns_extend "http://ns.adobe.com/Extensibility/1.0/">
	<!ENTITY ns_ai "http://ns.adobe.com/AdobeIllustrator/10.0/">
	<!ENTITY ns_graphs "http://ns.adobe.com/Graphs/1.0/">
	<!ENTITY ns_vars "http://ns.adobe.com/Variables/1.0/">
	<!ENTITY ns_imrep "http://ns.adobe.com/ImageReplacement/1.0/">
	<!ENTITY ns_sfw "http://ns.adobe.com/SaveForWeb/1.0/">
	<!ENTITY ns_custom "http://ns.adobe.com/GenericCustomNamespace/1.0/">
	<!ENTITY ns_adobe_xpath "http://ns.adobe.com/XPath/1.0/">
]>
<svg version="1.1" id="Layer_1" xmlns:x="&ns_extend;" xmlns:i="&ns_ai;" xmlns:graph="&ns_graphs;"
	 xmlns="http://www.w3.org/2000/svg" xmlns:xlink="http://www.w3.org/1999/xlink" x="0px" y="0px" viewBox="0 0 668 211.7"
	 style="enable-background:new 0 0 668 211.7;" xml:space="preserve">
<style type="text/css">
	.st0{display:none;}
	.st1{display:inline;}
	.st2{clip-path:url(#SVGID_2_);}
	.st3{clip-path:url(#SVGID_4_);fill:#7866D5;}
	.st4{clip-path:url(#SVGID_4_);fill:#FFFFFF;}
	.st5{fill:#FFFFFF;}
	.st6{clip-path:url(#SVGID_6_);}
	.st7{clip-path:url(#SVGID_8_);fill:#FFFFFF;}
</style>
<metadata>
	<sfw  xmlns="&ns_sfw;">
		<slices></slices>
		<sliceSourceBounds  bottomLeftOrigin="true" height="1080" width="1920" x="-18" y="-1080"></sliceSourceBounds>
	</sfw>
</metadata>
<g>
	<g class="st0">
		<g class="st1">
			<defs>
				<rect id="SVGID_1_" x="0" y="-0.1" width="667.9" height="211.7"/>
			</defs>
			<clipPath id="SVGID_2_">
				<use xlink:href="#SVGID_1_"  style="overflow:visible;"/>
			</clipPath>
			<g class="st2">
				<defs>
					<rect id="SVGID_3_" x="0" y="-0.1" width="667.9" height="211.7"/>
				</defs>
				<clipPath id="SVGID_4_">
					<use xlink:href="#SVGID_3_"  style="overflow:visible;"/>
				</clipPath>
				<path class="st3" d="M211.7,105.7c0,58.5-47.4,105.8-105.8,105.8S0,164.2,0,105.7S47.4-0.1,105.8-0.1S211.7,47.3,211.7,105.7"/>
				<path class="st4" d="M148.8,54.2c3.6,0.4,7.3,0.7,10.8,1.4c7.1,1.4,9.4,4.9,8.2,12c-0.3,2.7-2.4,4.8-5.1,5.2
					c-1.7,0.3-3.4,0.4-5.1,0.4c-23.2,0.1-46.5,0.1-69.7,0.2c-3.5,0-7,0.3-10.4,0.9C66,76.1,61.6,80.9,60.7,92.5
					c-0.4,5.4-0.4,5.4,5,5.4h92.6h2.7c1.5,0,2.9,0.4,4.2,1.2c4.2,2.7,3.2,7,2.9,10.8c-0.2,3.1-2.1,4.9-5.3,5.5
					c-1.4,0.2-2.7,0.3-4.1,0.3h-95c-3.5,0-3.5,0-3.2,3.5c0.1,3.2,0.5,6.3,1.2,9.4c1.4,5.7,5,9.3,10.7,10.9
					c6.3,1.8,12.8,2.2,19.3,2.2c22.7,0.1,45.3,0.1,68,0.1c2.9,0,5.6,0.4,7.3,3c2.8,4.5,1.4,10.4-3.1,13.2c-0.6,0.4-1.3,0.7-1.9,0.9
					c-4.9,1.6-10,2-15.2,2c-21.3,0.4-42.6,0.4-63.8,0c-6.6-0.2-13.1-0.9-19.6-2.3c-15.1-3.1-22.7-10.8-25.3-26.1
					c-0.6-3.5-0.9-7.1-1.3-10.6V94.2c0.3-2.7,0.6-5.5,0.9-8.2c2-17.2,9.7-25.8,26.7-29.5c6-1.3,12.2-1.6,18.3-2.3L148.8,54.2z"/>
				<path class="st4" d="M114.8,163.9c-10.7,0-21.4-0.1-32-0.3c-6.7-0.2-13.5-0.9-20.1-2.3c-16.2-3.4-24.7-12.1-27.4-28.3
					c-0.4-2.5-0.7-5-1-7.5c-0.1-1.1-0.2-2.2-0.4-3.3l0-0.3l0-28.1l0.3-2.6c0.2-1.9,0.4-3.7,0.6-5.6C37,67.4,45.6,57.9,63.6,53.9
					c4.7-1,9.5-1.5,14.1-1.9c1.5-0.1,3-0.3,4.5-0.4l0.3,0l66.4,0l0.2,0c1.1,0.1,2.2,0.3,3.3,0.4c2.5,0.3,5.1,0.5,7.7,1
					c8.5,1.7,11.8,6.5,10.3,15.1c-0.5,3.8-3.5,6.9-7.4,7.4c-1.8,0.3-3.6,0.4-5.5,0.4c-23.2,0.1-46.4,0.1-69.7,0.2
					c-3.3,0-6.7,0.3-10,0.9c-10.3,1.7-13.7,5.4-14.6,15.8c-0.1,0.9-0.2,1.9-0.2,2.5c0.6,0,1.6,0,2.5,0H161h0c2,0,3.9,0.5,5.6,1.5
					c5.1,3.3,4.7,8.2,4.4,11.8c0,0.5-0.1,1-0.1,1.5c-0.3,4.2-2.9,7.1-7.5,8c-1.6,0.3-3.2,0.4-4.7,0.3h-95c-0.2,0-0.4,0-0.6,0
					c0,0.1,0,0.3,0,0.4l0,0.2c0.1,3.1,0.5,6.1,1.1,9.1c1.2,4.7,4,7.5,8.8,8.9c6.4,1.8,13,2.1,18.6,2.1c17.7,0.1,35.6,0.1,53,0.1
					l15,0c2.2,0,6.8,0,9.5,4.3c1.7,2.8,2.3,6.1,1.5,9.3c-0.7,3.2-2.7,5.9-5.5,7.6c-0.8,0.5-1.6,0.9-2.5,1.2
					c-5.5,1.8-11.2,2.1-16,2.2C136.2,163.8,125.5,163.9,114.8,163.9 M39.4,121.8c0.1,1.1,0.2,2.1,0.4,3.2c0.3,2.4,0.5,4.8,0.9,7.2
					c2.4,14.1,9.1,21,23.2,23.9c6.3,1.3,12.7,2.1,19.1,2.2c21.1,0.4,42.6,0.4,63.7,0c4.4-0.1,9.6-0.4,14.4-1.9
					c0.4-0.2,0.9-0.4,1.3-0.6c1.6-1,2.6-2.5,3.1-4.3c0.4-1.8,0.1-3.6-0.8-5.2c-0.8-1.3-2.1-1.8-5-1.8l-15,0c-17.4,0-35.3,0-53-0.1
					c-6,0-13-0.3-20-2.3c-6.7-1.9-10.9-6.2-12.6-12.8c-0.7-3.3-1.1-6.7-1.3-10l0-0.1c-0.2-2.1-0.3-3.6,0.9-4.9
					c1.2-1.3,2.8-1.3,5-1.3h95c1.3,0,2.5,0,3.7-0.2c2.4-0.5,3-1.5,3.1-3c0-0.5,0.1-1.1,0.1-1.6c0.3-3.8,0.3-5.5-1.8-6.8
					c-0.8-0.5-1.7-0.7-2.7-0.7h0H65.7c-3.3,0-5.3,0-6.7-1.5c-1.4-1.5-1.3-3.5-1-6.8c1-12.8,6.4-18.6,19-20.7c3.6-0.6,7.2-0.9,10.8-1
					c23.3,0,46.5-0.1,69.7-0.2c1.6,0,3.1-0.1,4.7-0.3c1.6-0.2,2.7-1.4,2.9-2.8c1-5.9-0.4-8-6.1-9.1c-2.3-0.5-4.7-0.7-7.2-1
					c-1.1-0.1-2.2-0.2-3.3-0.4l-66,0c-1.5,0.2-2.9,0.3-4.4,0.4c-4.6,0.4-9,0.8-13.4,1.8C49,62.6,42.1,70.3,40.2,86.3
					c-0.2,1.8-0.4,3.7-0.6,5.5l-0.3,2.5V121.8z"/>
				<path class="st3" d="M331.2,70.4c2.5,0.3,4.9,0.5,7.4,0.9c4.8,0.9,6.4,3.3,5.6,8.2c-0.2,1.8-1.7,3.3-3.5,3.5
					c-1.1,0.2-2.3,0.3-3.5,0.2c-15.8,0.1-31.5,0.1-47.3,0.1c-2.4,0-4.7,0.2-7.1,0.6c-7.8,1.3-10.8,4.5-11.4,12.4
					c-0.3,3.7-0.3,3.7,3.4,3.7h62.9h1.8c1,0,2,0.3,2.8,0.8c2.9,1.8,2.2,4.7,2,7.3c-0.1,2.1-1.4,3.3-3.6,3.7
					c-0.9,0.1-1.9,0.2-2.8,0.2h-64.5c-2.4,0-2.3,0-2.2,2.4c0.1,2.2,0.4,4.3,0.8,6.4c1,3.9,3.4,6.3,7.2,7.4c4.3,1.2,8.7,1.5,13.1,1.5
					c15.4,0.1,30.8,0.1,46.1,0.1c1.9,0,3.8,0.2,4.9,2.1c1.9,3,1,7-2.1,8.9c-0.4,0.3-0.9,0.5-1.3,0.6c-3.3,1.1-6.8,1.3-10.3,1.4
					c-14.4,0.3-28.9,0.3-43.3,0c-4.5-0.1-8.9-0.6-13.3-1.5c-10.3-2.1-15.4-7.4-17.2-17.7c-0.4-2.4-0.6-4.8-0.9-7.2V97.5
					c0.2-1.9,0.4-3.7,0.6-5.5c1.4-11.7,6.6-17.5,18.1-20c4.1-0.9,8.3-1.1,12.4-1.5L331.2,70.4z"/>
				<path class="st3" d="M308.1,144.2c-7.2,0-14.5-0.1-21.7-0.2c-4.5-0.1-9.1-0.6-13.5-1.6c-10.9-2.3-16.3-7.8-18.1-18.7
					c-0.3-1.7-0.5-3.4-0.7-5c-0.1-0.7-0.2-1.5-0.3-2.2l0-19l0.2-1.9c0.1-1.3,0.3-2.5,0.4-3.7c1.4-12.1,7.1-18.4,19.1-21.1
					c3.2-0.7,6.4-1,9.5-1.3c1-0.1,2-0.2,3-0.3l45.2,0l0.1,0c0.8,0.1,1.5,0.2,2.3,0.2c1.7,0.2,3.4,0.4,5.2,0.7c5.5,1.1,7.5,4,6.6,9.6
					c-0.3,2.3-2.1,4.2-4.5,4.5c-1.2,0.2-2.4,0.3-3.6,0.3c-15.7,0.1-31.5,0.1-47.3,0.1c-2.3,0-4.6,0.2-6.9,0.6
					c-7.3,1.2-9.8,3.9-10.4,11.3c-0.1,1-0.2,2.1-0.1,2.4c0.1,0,1.2,0,2.2,0h64.7h0c1.2,0,2.4,0.3,3.5,1c3.2,2,2.9,5,2.7,7.5
					c0,0.3-0.1,0.7-0.1,1c-0.1,1.8-1,4.2-4.6,4.9c-1,0.2-2.1,0.2-3.1,0.2h-64.5c-0.4,0-0.7,0-1,0c0,0.3,0,0.6,0.1,0.9
					c0.1,2.2,0.4,4.3,0.8,6.4c0.9,3.4,2.9,5.5,6.4,6.5c4.4,1.2,8.9,1.4,12.8,1.5c12,0.1,24.1,0.1,36.1,0.1l10,0c2.1,0,4.5,0.3,6,2.6
					c2.3,3.6,1.1,8.4-2.5,10.6c-0.5,0.3-1,0.6-1.6,0.7c-3.7,1.2-7.4,1.4-10.7,1.5C322.6,144.2,315.4,144.2,308.1,144.2 M331.1,71.6
					l-44.9,0c-0.9,0.1-1.9,0.2-2.9,0.3c-3,0.3-6.2,0.6-9.2,1.2c-11,2.5-15.8,7.8-17.1,19c-0.1,1.2-0.3,2.5-0.4,3.7l-0.2,1.8l0,18.7
					c0.1,0.6,0.2,1.4,0.2,2.1c0.2,1.6,0.4,3.3,0.6,4.9c1.7,9.8,6.4,14.7,16.2,16.7c4.3,0.9,8.7,1.4,13.1,1.5
					c14.4,0.3,28.9,0.3,43.3,0c3-0.1,6.6-0.3,9.9-1.3c0.3-0.1,0.7-0.3,1-0.5c2.5-1.5,3.2-4.8,1.7-7.2c-0.8-1.2-2-1.5-3.9-1.5l-10,0
					c-12,0-24.1,0-36.2-0.1c-4,0-8.7-0.2-13.4-1.5c-4.3-1.2-7-4-8.1-8.3c-0.5-2.2-0.8-4.4-0.8-6.6c-0.1-1.5-0.2-2.3,0.5-3
					c0.6-0.7,1.5-0.7,2.9-0.7h64.5c0.9,0,1.8,0,2.6-0.2c2.1-0.4,2.5-1.5,2.6-2.6c0-0.4,0.1-0.7,0.1-1.1c0.2-2.5,0.3-4-1.5-5.2
					c-0.6-0.4-1.4-0.6-2.2-0.6h0h-64.7c-2.1,0-3.3,0-4.1-0.9c-0.8-0.9-0.7-2-0.5-4.2c0.7-8.5,4-12.1,12.4-13.5
					c2.4-0.4,4.8-0.6,7.3-0.6c15.8,0,31.6-0.1,47.3-0.1c1.1,0,2.2-0.1,3.3-0.2c1.3-0.2,2.3-1.2,2.4-2.4c0.7-4.3-0.5-6-4.6-6.8
					c-1.6-0.3-3.3-0.5-4.9-0.7C332.6,71.8,331.8,71.7,331.1,71.6"/>
				<path class="st3" d="M448,105.9v28.6c0,5-2.1,7.5-7.1,8c-4.7,0.5-9.5,0.3-14.2,0.1c-2.7-0.1-4.8-1.6-6.5-3.6
					c-14.2-16.4-28.3-32.8-42.5-49.1c-0.8-0.9-1.5-1.8-2.3-2.6c-0.5-0.6-1.1-1.1-2-0.8c-0.9,0.3-0.9,1.2-0.9,1.9v6.3v41.5
					c0,5-1.6,6.5-6.5,6.5c-1.4,0-2.9,0-4.3,0c-3-0.1-4.7-1.7-5-4.7c-0.1-0.9-0.1-1.9-0.1-2.8V80.2c0-0.6,0-1.2,0-1.8
					c0.3-4.1,2.3-6.5,6.3-7.1c5.1-0.8,10.2-0.5,15.4-0.2c2.7,0.1,4.6,1.8,6.4,3.8c14.7,17,29.4,33.9,44.1,50.9
					c0.3,0.4,0.7,0.7,1,1.1c0.5,0.4,1,0.8,1.6,0.5c0.6-0.3,0.9-0.9,0.9-1.5v-1.7v-47c0-4.6,1.6-6.2,6.3-6.2h4
					c3.7,0.1,5.5,1.8,5.5,5.5C448,86.3,448,96.1,448,105.9"/>
				<path class="st3" d="M434.3,144.2c-2.4,0-4.8-0.1-7.1-0.2l-0.5,0c-2.7-0.1-5.1-1.4-7.4-4c-14.2-16.4-28.3-32.8-42.5-49.1
					c-0.7-0.9-1.5-1.7-2.3-2.6c-0.5-0.5-0.6-0.6-0.7-0.5c-0.1,0.1-0.1,0.6-0.1,0.8v47.8c0,5.7-2.1,7.8-7.8,7.8l-1.2,0
					c-1.1,0-2.1,0-3.2,0c-3.6-0.2-5.8-2.2-6.1-5.8c-0.1-1-0.1-2-0.1-2.9V80.2c0-0.6,0-1.3,0-1.9c0.3-4.8,2.8-7.6,7.4-8.2
					c5.2-0.8,10.4-0.5,15.4-0.2c3.5,0.2,5.8,2.4,7.4,4.2c14.7,17,29.3,33.9,44.1,50.9c0.3,0.4,0.6,0.7,0.9,1
					c0.2,0.2,0.3,0.3,0.4,0.3c0-0.1,0.1-0.2,0.1-0.3l0-48.7c0-5.3,2.2-7.5,7.5-7.5h4c4.4,0.1,6.7,2.4,6.7,6.7l0,10.5
					c0,6.3,0,12.6,0,18.9v28.6c0,5.7-2.6,8.6-8.2,9.3C438.8,144.1,436.6,144.2,434.3,144.2 M373.9,85.3c1.2,0,2,0.9,2.4,1.3
					c0.8,0.9,1.6,1.7,2.4,2.6c14.2,16.4,28.4,32.8,42.5,49.1c1.8,2.1,3.6,3.1,5.6,3.1l0.5,0c4.5,0.2,9.1,0.4,13.5-0.1
					c4.3-0.5,6-2.4,6-6.8v-28.6c0-6.3,0-12.6,0-18.9l0-10.5c0-3-1.3-4.2-4.3-4.3h-4c-4,0-5,1-5,5v48.6c0.1,1-0.5,2.1-1.5,2.6
					c-1.5,0.7-2.6-0.3-3-0.6c-0.4-0.4-0.8-0.8-1.2-1.2c-14.7-16.9-29.4-33.9-44-50.9c-1.9-2.3-3.6-3.3-5.5-3.4
					c-5.1-0.3-10.2-0.5-15.1,0.2c-3.4,0.5-5,2.3-5.3,5.9c0,0.6,0,1.1,0,1.7v55.1c0,0.9,0,1.8,0.1,2.7c0.2,2.4,1.4,3.5,3.8,3.6
					c1,0.1,2,0,3,0l1.2,0c4.3,0,5.3-1,5.3-5.3V88.5c0-0.8,0-2.5,1.7-3.1C373.3,85.3,373.6,85.3,373.9,85.3"/>
				<path class="st3" d="M575.4,107.9V79.9c0-5.9,2.2-8.5,8-8.8c4.3-0.3,8.6-0.1,12.9,0c2.7,0.1,4.9,1.5,6.7,3.5
					c14.4,16.6,28.7,33.2,43.1,49.8c0.7,0.8,1.4,1.6,2.1,2.3c0.5,0.5,1.1,1.1,1.9,0.7c0.7-0.3,0.8-1,0.8-1.7V124V77.4
					c0-4.8,1.6-6.4,6.3-6.4h4c3.7,0,5.5,1.8,5.5,5.5v27v31.3c0,4.7-2.1,7.2-6.7,7.8c-4.8,0.6-9.7,0.4-14.5,0.2
					c-2.7-0.1-4.8-1.7-6.6-3.7c-14.6-16.9-29.3-33.9-43.9-50.8c-0.2-0.2-0.4-0.5-0.7-0.7c-0.6-0.6-1.2-1.2-2.1-0.9
					c-0.9,0.3-0.9,1.3-0.9,2.1v39.5v9c0,3.9-1.8,5.7-5.7,5.7c-1.6,0-3.2,0-4.8,0c-3.5-0.1-5.3-1.9-5.3-5.4
					C575.4,127.6,575.4,117.7,575.4,107.9"/>
				<path class="st3" d="M653,144.2c-2.4,0-4.8-0.1-7.1-0.2l-0.6,0c-2.8-0.1-5.1-1.4-7.5-4.1c-14.6-16.9-29.3-33.9-43.9-50.8
					l-0.2-0.3c-0.1-0.1-0.3-0.3-0.4-0.4c-0.6-0.6-0.7-0.6-0.8-0.6c-0.1,0.1-0.1,0.6-0.1,0.9v48.5c0,4.6-2.4,6.9-6.9,6.9l-1.6,0
					c-1.1,0-2.2,0-3.2,0c-4.2-0.1-6.5-2.5-6.5-6.6c0-9.9,0-19.7,0-29.6V79.9c0-6.7,2.7-9.7,9.2-10.1c4.5-0.3,9-0.1,13,0
					c2.8,0.1,5.4,1.4,7.6,3.9l43.1,49.8c0.7,0.8,1.3,1.5,2,2.3c0.1,0.1,0.4,0.4,0.5,0.4c0,0,0-0.2,0.1-0.6V77.4
					c0-5.5,2.1-7.6,7.6-7.6h4c4.4,0,6.7,2.4,6.7,6.8v58.2c0,5.4-2.6,8.4-7.8,9C657.7,144.1,655.4,144.2,653,144.2 M592.6,85.2
					c1.2,0,2,0.8,2.5,1.3c0.2,0.2,0.4,0.4,0.6,0.6l0.2,0.2c14.7,16.9,29.3,33.8,43.9,50.8c1.9,2.2,3.7,3.2,5.7,3.3l0.6,0
					c4.5,0.2,9.2,0.4,13.7-0.2c4-0.5,5.7-2.5,5.7-6.6V76.5c0-3-1.2-4.3-4.3-4.3h-4c-4,0-5.1,1.1-5.1,5.2v48.3c0,0.6,0,2.1-1.5,2.8
					c-1.6,0.8-2.8-0.4-3.3-0.9c-0.8-0.8-1.5-1.6-2.2-2.4l-43.1-49.8c-1.8-2-3.6-3-5.8-3.1c-3.9-0.1-8.4-0.2-12.8,0
					c-5.1,0.3-6.9,2.2-6.9,7.6v27.9c0,9.9,0,19.7,0,29.6c0,2.8,1.2,4.1,4.1,4.1c1.1,0,2.1,0,3.2,0l1.6,0c3.2,0,4.4-1.2,4.4-4.5V88.7
					c0-0.9,0-2.6,1.7-3.3C592,85.3,592.3,85.2,592.6,85.2"/>
				<path class="st3" d="M512.6,96.3V76.5c0-3.8,1.7-5.5,5.4-5.5c1.8,0,3.6,0,5.5,0c2.9,0.1,4.5,1.5,4.9,4.3
					c0.1,0.8,0.2,1.6,0.2,2.5c0,11,0,21.9,0,32.9c0,4.4-0.3,8.8-0.9,13.2c-1.7,10.6-6.9,15.8-18,18c-4.2,0.8-8.5,1.3-12.8,1.3
					c-9.4,0.1-18.7,0.4-28.1-0.3c-2.6-0.2-5.2-0.4-7.6-1.4c-2.9-1.2-4-3.6-3.4-7.4c0.4-2.5,2.3-3.8,5.4-3.9c9.6,0,19.3,0,28.9-0.1
					c3.2,0,6.4-0.3,9.5-0.9c7.6-1.6,10.4-4.9,10.7-12.8c0.1-3.4,0.2-6.7,0.3-10.1C512.6,103.1,512.6,99.7,512.6,96.3"/>
				<path class="st3" d="M482.3,144.6c-4.5,0-9.1-0.1-13.6-0.4c-2.7-0.2-5.4-0.4-8-1.5c-2.4-1-5.1-3.3-4.1-8.8
					c0.3-1.8,1.6-4.8,6.6-4.9c3.9,0,7.9,0,11.8,0c5.7,0,11.4,0,17.1-0.1c3.1,0,6.3-0.3,9.3-0.9c7.1-1.5,9.4-4.3,9.7-11.6
					c0.1-3.4,0.2-6.7,0.3-10c0-2.2,0-4.4,0-6.5l0-23.4c0-4.4,2.2-6.7,6.6-6.7l1.8,0c1.2,0,2.4,0,3.7,0c3.5,0.1,5.6,2,6.1,5.4
					c0.1,0.9,0.2,1.8,0.2,2.7l0,10.9c0,7.3,0,14.6,0,21.9c0,4.4-0.3,8.9-1,13.3c-1.7,11.1-7.4,16.8-19,19.1c-4.3,0.8-8.7,1.3-13,1.3
					l-5.2,0.1C488.6,144.5,485.4,144.6,482.3,144.6 M492.1,131.4c-5.7,0-11.4,0.1-17.1,0.1c-3.9,0-7.8,0-11.8,0
					c-3.7,0-4,2.2-4.1,2.8c-0.7,4.1,1,5.4,2.6,6c2.3,0.9,4.7,1.2,7.2,1.3c7.6,0.5,15.3,0.4,22.8,0.3l5.2-0.1c4.2,0,8.4-0.4,12.6-1.3
					c10.5-2.1,15.4-7,17-17c0.6-4.3,1-8.6,0.9-13c0-7.3,0-14.6,0-21.9l0-11c0-0.8,0-1.5-0.2-2.3c-0.4-2.2-1.5-3.2-3.8-3.3
					c-1.2,0-2.4,0-3.6,0l-1.8,0c-3,0-4.2,1.2-4.2,4.3l0,23.4c0,2.2,0,4.4,0,6.6c0,3.4-0.2,6.7-0.3,10.1c-0.3,8.4-3.5,12.2-11.7,14
					C498.6,131.1,495.3,131.4,492.1,131.4"/>
				<path class="st3" d="M559.8,106.9v29.8c0,4.6-1.6,6.1-6.2,6.1c-1.5,0-3.1,0-4.6,0c-3.3-0.1-5.1-1.9-5.2-5.2c0-0.9,0-1.8,0-2.6
					V77.5c0-4.9,1.6-6.5,6.4-6.5h4.1c3.7,0.1,5.5,1.9,5.5,5.5C559.8,86.7,559.8,96.8,559.8,106.9"/>
				<path class="st3" d="M550.5,144.1c-0.5,0-1,0-1.6,0c-3.9-0.2-6.2-2.4-6.4-6.4c0-0.6,0-1.2,0-1.8l0-0.9V77.5
					c0-5.6,2.1-7.7,7.6-7.7h4.1c4.3,0.1,6.7,2.5,6.7,6.8c0,6.4,0,12.8,0,19.2l0,41c0,5.2-2.1,7.4-7.4,7.4l-1.5,0
					C551.5,144.1,551,144.1,550.5,144.1 M554.3,72.2h-4.1c-4.1,0-5.2,1-5.2,5.2l0,58.5c0,0.6,0,1.1,0,1.7c0.1,2.7,1.4,3.9,4,4
					c1,0,2,0,3,0l1.6,0c3.9,0,4.9-1,4.9-4.9l0-41c0-6.4,0-12.8,0-19.2C558.5,73.6,557.3,72.3,554.3,72.2"/>
			</g>
		</g>
	</g>
	<g>
		<path class="st5" d="M255.8,9.5h10.1c2.6,0,4.6,0.6,6.1,1.9c1.5,1.3,2.2,3,2.2,5.2c0,2.2-0.7,3.9-2.2,5.2
			c-1.5,1.3-3.5,1.9-6.1,1.9h-7.2v11.1h-2.9V9.5z M265.6,21.3c1.9,0,3.3-0.4,4.2-1.2c0.9-0.8,1.4-2,1.4-3.5c0-1.5-0.5-2.7-1.4-3.5
			c-0.9-0.8-2.4-1.2-4.2-1.2h-6.9v9.3H265.6z"/>
		<path class="st5" d="M280.9,33.9c-1.3-0.8-2.3-1.8-3-3.2c-0.7-1.4-1-3-1-4.9c0-1.9,0.3-3.5,1-4.9c0.7-1.4,1.7-2.5,3-3.2
			c1.3-0.8,2.8-1.1,4.4-1.1c1.7,0,3.2,0.4,4.4,1.1c1.3,0.8,2.3,1.8,3,3.2c0.7,1.4,1,3,1,4.9c0,1.9-0.3,3.5-1,4.9
			c-0.7,1.4-1.7,2.5-3,3.2c-1.3,0.8-2.8,1.1-4.4,1.1C283.7,35,282.2,34.7,280.9,33.9z M289.4,30.9c0.9-1.2,1.4-2.9,1.4-5.1
			c0-2.2-0.5-3.9-1.5-5.1c-1-1.2-2.3-1.8-4-1.8c-1.8,0-3.1,0.6-4.1,1.8c-1,1.2-1.5,2.9-1.5,5.1c0,2.2,0.5,4,1.4,5.1
			c1,1.2,2.3,1.8,4.1,1.8S288.5,32.1,289.4,30.9z"/>
		<path class="st5" d="M322.3,16.9h2.8l-6.6,17.8h-2.8l-5.1-13.9l-5.1,13.9h-2.8l-6.6-17.8h3l5,14.4l5.2-14.4h2.5l5.1,14.4
			L322.3,16.9z"/>
		<path class="st5" d="M343.6,25.8h-13.1c0,2.3,0.5,4,1.6,5.1c1,1.2,2.5,1.7,4.5,1.7c2.1,0,4-0.7,5.7-2.1l1,2.1
			c-0.8,0.7-1.8,1.3-3,1.7c-1.2,0.4-2.5,0.6-3.7,0.6c-2.8,0-5-0.8-6.6-2.5c-1.6-1.6-2.4-3.9-2.4-6.8c0-1.8,0.4-3.4,1.1-4.8
			c0.7-1.4,1.7-2.5,3-3.3s2.7-1.2,4.4-1.2c2.4,0,4.2,0.8,5.6,2.3c1.3,1.5,2,3.7,2,6.4V25.8z M332.4,20.1c-0.9,0.9-1.5,2.2-1.8,3.8
			H341c-0.1-1.7-0.6-3-1.5-3.8c-0.8-0.9-2-1.3-3.5-1.3S333.4,19.2,332.4,20.1z"/>
		<path class="st5" d="M357.9,16.7l-0.1,2.6c-0.5-0.2-1.2-0.3-1.9-0.3c-1.7,0-3,0.5-3.8,1.6c-0.8,1.1-1.3,2.4-1.3,3.9v10.2H348V21.9
			c0-1.8-0.1-3.5-0.3-5h2.7l0.3,3.3c0.4-1.2,1.2-2.1,2.2-2.8c1-0.6,2.1-1,3.4-1C356.9,16.5,357.4,16.6,357.9,16.7z"/>
		<path class="st5" d="M375.4,25.8h-13.1c0,2.3,0.5,4,1.6,5.1c1,1.2,2.5,1.7,4.5,1.7c2.1,0,4-0.7,5.7-2.1l1,2.1
			c-0.8,0.7-1.8,1.3-3,1.7c-1.2,0.4-2.5,0.6-3.7,0.6c-2.8,0-5-0.8-6.6-2.5c-1.6-1.6-2.4-3.9-2.4-6.8c0-1.8,0.4-3.4,1.1-4.8
			c0.7-1.4,1.7-2.5,3-3.3s2.7-1.2,4.4-1.2c2.4,0,4.2,0.8,5.6,2.3c1.3,1.5,2,3.7,2,6.4V25.8z M364.2,20.1c-0.9,0.9-1.5,2.2-1.8,3.8
			h10.4c-0.1-1.7-0.6-3-1.5-3.8c-0.8-0.9-2-1.3-3.5-1.3S365.2,19.2,364.2,20.1z"/>
		<path class="st5" d="M395.5,8.7v26.1h-2.8v-3.2c-0.5,1.1-1.3,2-2.4,2.6c-1.1,0.6-2.3,0.9-3.7,0.9c-1.6,0-2.9-0.4-4.1-1.2
			c-1.2-0.8-2.1-1.9-2.8-3.3c-0.7-1.4-1-3-1-4.9s0.3-3.5,1-4.8s1.6-2.5,2.8-3.2c1.2-0.8,2.6-1.1,4.2-1.1c1.4,0,2.6,0.3,3.7,0.9
			s1.8,1.4,2.3,2.5V8.7H395.5z M391.2,30.9c0.9-1.2,1.4-2.9,1.4-5.1c0-2.2-0.5-3.9-1.4-5.1c-0.9-1.2-2.3-1.8-4-1.8
			c-1.8,0-3.1,0.6-4.1,1.8c-1,1.2-1.5,2.9-1.5,5c0,2.2,0.5,3.9,1.5,5.1c1,1.2,2.3,1.8,4.1,1.8C389,32.7,390.3,32.1,391.2,30.9z"/>
		<path class="st5" d="M423.4,17.7c1.2,0.8,2.1,1.8,2.8,3.2s1,3,1,4.8s-0.3,3.5-1,4.9c-0.7,1.4-1.6,2.5-2.8,3.3
			c-1.2,0.8-2.6,1.2-4.2,1.2c-1.4,0-2.6-0.3-3.7-0.9c-1-0.6-1.8-1.5-2.4-2.6v3.3h-2.9V8.7h2.9v11.4c0.5-1.2,1.3-2,2.4-2.7
			c1.1-0.6,2.3-0.9,3.7-0.9C420.8,16.5,422.2,16.9,423.4,17.7z M422.8,30.8c1-1.2,1.5-2.9,1.5-5.1c0-2.2-0.5-3.8-1.4-5
			c-1-1.2-2.3-1.8-4.1-1.8c-1.8,0-3.1,0.6-4.1,1.8c-0.9,1.2-1.4,2.9-1.4,5.1c0,2.2,0.5,3.9,1.4,5.1c0.9,1.2,2.3,1.8,4.1,1.8
			C420.4,32.7,421.8,32.1,422.8,30.8z"/>
		<path class="st5" d="M447.1,16.9l-8.3,19.5c-0.9,2-2,3.5-3.3,4.5c-1.3,0.9-3,1.6-4.9,2l-0.6-2.2c1.7-0.4,3-0.9,3.8-1.5
			c0.9-0.6,1.6-1.6,2.1-2.9l0.7-1.6l-7.6-17.7h3l6,14.7l6.1-14.7H447.1z"/>
	</g>
</g>
<g>
	<g>
		<defs>
			<rect id="SVGID_5_" x="0" y="0" width="668" height="211.7"/>
		</defs>
		<clipPath id="SVGID_6_">
			<use xlink:href="#SVGID_5_"  style="overflow:visible;"/>
		</clipPath>
		<g class="st6">
			<defs>
				<rect id="SVGID_7_" x="0" y="0" width="668" height="211.7"/>
			</defs>
			<clipPath id="SVGID_8_">
				<use xlink:href="#SVGID_7_"  style="overflow:visible;"/>
			</clipPath>
			<path class="st7" d="M105.9,0C47.4,0,0,47.4,0,105.9s47.4,105.9,105.9,105.9s105.9-47.4,105.9-105.9S164.3,0,105.9,0 M63.1,118.9
				l0,0.2c0.1,3.1,0.5,6.1,1.1,9.1c1.2,4.7,4,7.5,8.8,8.9c6.4,1.8,13,2.1,18.6,2.1c17.7,0.1,35.6,0.1,53,0.1l15,0
				c2.2,0,6.8,0,9.5,4.3c1.7,2.8,2.3,6.1,1.5,9.3c-0.7,3.2-2.7,5.9-5.5,7.6c-0.8,0.5-1.6,0.9-2.5,1.2c-5.5,1.8-11.2,2.1-16,2.2
				c-10.6,0.2-21.3,0.3-32,0.3c-10.7,0-21.4-0.1-32-0.3c-6.7-0.2-13.5-0.9-20.1-2.3c-16.2-3.4-24.7-12.1-27.4-28.3
				c-0.4-2.5-0.7-5-1-7.5c-0.1-1.1-0.2-2.2-0.4-3.3l0-0.3L34,94l0.3-2.6c0.2-1.9,0.4-3.7,0.6-5.6C37,67.5,45.6,58,63.7,54
				c4.7-1,9.5-1.5,14.1-1.9c1.5-0.1,3-0.3,4.5-0.4l0.3,0l66.4,0l0.2,0c1.1,0.1,2.2,0.2,3.3,0.4c2.5,0.3,5.1,0.5,7.7,1
				c8.5,1.7,11.8,6.5,10.3,15.1c-0.4,3.8-3.5,6.9-7.4,7.4c-1.8,0.3-3.6,0.4-5.5,0.4c-23.2,0.1-46.4,0.1-69.7,0.2
				c-3.3,0-6.7,0.3-10,0.9c-10.3,1.7-13.7,5.4-14.6,15.8c-0.1,0.9-0.2,1.9-0.2,2.5c0.6,0,1.6,0,2.5,0H161h0c2,0,3.9,0.5,5.6,1.5
				c5.1,3.3,4.7,8.2,4.4,11.8c0,0.5-0.1,1-0.1,1.5c-0.3,4.2-2.9,7.1-7.5,8c-1.6,0.3-3.2,0.4-4.7,0.3l-95,0c-0.2,0-0.4,0-0.6,0
				C63.1,118.6,63.1,118.8,63.1,118.9"/>
			<path class="st7" d="M331.2,70.5c2.5,0.3,4.9,0.5,7.4,0.9c4.8,0.9,6.4,3.3,5.6,8.2c-0.2,1.8-1.7,3.3-3.5,3.5
				c-1.1,0.2-2.3,0.3-3.5,0.2c-15.8,0.1-31.6,0.1-47.3,0.1c-2.4,0-4.7,0.2-7.1,0.6c-7.8,1.3-10.8,4.5-11.4,12.4
				c-0.3,3.7-0.3,3.7,3.4,3.7h62.9h1.8c1,0,2,0.3,2.8,0.8c2.9,1.8,2.2,4.7,2,7.3c-0.1,2.1-1.4,3.3-3.6,3.7c-0.9,0.1-1.9,0.2-2.8,0.2
				h-64.5c-2.4,0-2.3,0-2.2,2.4c0.1,2.2,0.4,4.3,0.8,6.4c1,3.9,3.4,6.3,7.3,7.4c4.3,1.2,8.7,1.5,13.1,1.5
				c15.4,0.1,30.8,0.1,46.2,0.1c1.9,0,3.8,0.2,4.9,2.1c1.9,3,1,7-2.1,8.9c-0.4,0.3-0.9,0.5-1.3,0.6c-3.3,1.1-6.8,1.3-10.3,1.4
				c-14.4,0.3-28.9,0.3-43.3,0c-4.5-0.1-8.9-0.6-13.3-1.5c-10.3-2.1-15.4-7.4-17.2-17.7c-0.4-2.4-0.6-4.8-0.9-7.2V97.7
				c0.2-1.9,0.4-3.7,0.6-5.5c1.4-11.7,6.6-17.5,18.1-20c4.1-0.9,8.3-1.1,12.4-1.5L331.2,70.5z"/>
			<path class="st7" d="M308.2,144.4c-7.2,0-14.5-0.1-21.7-0.2c-4.5-0.1-9.1-0.6-13.5-1.6c-10.9-2.3-16.3-7.8-18.1-18.7
				c-0.3-1.7-0.5-3.4-0.7-5c-0.1-0.7-0.2-1.5-0.3-2.2l0-19l0.2-1.9c0.1-1.3,0.3-2.5,0.4-3.7c1.4-12.1,7.1-18.4,19.1-21.1
				c3.2-0.7,6.4-1,9.5-1.3c1-0.1,2-0.2,3-0.3l45.2,0l0.1,0c0.8,0.1,1.5,0.2,2.3,0.2c1.7,0.2,3.4,0.4,5.2,0.7c5.5,1.1,7.5,4,6.6,9.6
				c-0.3,2.3-2.1,4.2-4.5,4.5c-1.2,0.2-2.4,0.3-3.6,0.3c-15.7,0.1-31.5,0.1-47.3,0.1c-2.3,0-4.6,0.2-6.9,0.6
				c-7.3,1.2-9.8,3.9-10.4,11.3c-0.1,1-0.2,2.1-0.1,2.4c0.1,0,1.2,0,2.2,0h64.7h0c1.2,0,2.4,0.3,3.5,1c3.2,2,2.9,5,2.7,7.5
				c0,0.3-0.1,0.7-0.1,1c-0.1,1.8-1,4.2-4.6,4.9c-1,0.2-2.1,0.2-3.1,0.2h-64.5c-0.4,0-0.7,0-1,0c0,0.3,0,0.6,0.1,0.9
				c0.1,2.2,0.4,4.3,0.8,6.4c0.9,3.4,2.9,5.5,6.4,6.5c4.4,1.2,8.9,1.4,12.8,1.5c12,0.1,24.1,0.1,36.1,0.1l10,0c2.1,0,4.5,0.3,6,2.6
				c2.3,3.6,1.1,8.4-2.5,10.6c-0.5,0.3-1,0.6-1.6,0.7c-3.7,1.2-7.4,1.4-10.7,1.5C322.7,144.3,315.4,144.4,308.2,144.4 M331.2,71.8
				l-44.9,0c-0.9,0.1-1.9,0.2-3,0.3c-3,0.3-6.2,0.6-9.2,1.2c-11,2.5-15.8,7.8-17.2,19c-0.1,1.2-0.3,2.5-0.4,3.7l-0.2,1.8l0,18.7
				c0.1,0.6,0.2,1.4,0.2,2.1c0.2,1.6,0.4,3.3,0.6,4.9c1.7,9.8,6.4,14.7,16.2,16.7c4.3,0.9,8.7,1.4,13.1,1.5
				c14.4,0.3,28.9,0.3,43.3,0c3-0.1,6.6-0.3,9.9-1.3c0.3-0.1,0.7-0.3,1-0.5c2.5-1.5,3.2-4.8,1.7-7.2c-0.8-1.2-2-1.5-3.9-1.5l-10,0
				c-12.1,0-24.1,0-36.2-0.1c-4,0-8.7-0.2-13.4-1.5c-4.3-1.2-7-4-8.1-8.3c-0.5-2.2-0.8-4.4-0.8-6.6c-0.1-1.5-0.2-2.3,0.5-3
				c0.6-0.7,1.5-0.7,2.9-0.7H338c0.9,0,1.8,0,2.6-0.2c2.1-0.4,2.5-1.5,2.6-2.6c0-0.4,0.1-0.7,0.1-1.1c0.2-2.5,0.3-4-1.5-5.2
				c-0.6-0.4-1.4-0.6-2.2-0.6h0h-64.7c-2.1,0-3.3,0-4.1-0.9c-0.8-0.9-0.7-2-0.5-4.2c0.7-8.5,4-12.1,12.4-13.5
				c2.4-0.4,4.8-0.6,7.3-0.6c15.8,0,31.6-0.1,47.3-0.1c1.1,0,2.2-0.1,3.3-0.2c1.3-0.2,2.3-1.2,2.4-2.4c0.7-4.3-0.5-6-4.6-6.8
				c-1.6-0.3-3.3-0.5-4.9-0.7C332.7,71.9,331.9,71.9,331.2,71.8"/>
			<path class="st7" d="M448.1,106.1v28.6c0,5-2.1,7.5-7.1,8c-4.7,0.5-9.5,0.3-14.2,0.1c-2.7-0.1-4.8-1.6-6.5-3.6
				c-14.2-16.4-28.4-32.8-42.5-49.2c-0.8-0.9-1.5-1.8-2.3-2.6c-0.5-0.6-1.1-1.1-2-0.8c-0.9,0.3-0.9,1.2-0.9,1.9V95v41.5
				c0,5-1.6,6.5-6.5,6.5c-1.4,0-2.9,0-4.3,0c-3-0.1-4.7-1.7-5-4.7c-0.1-0.9-0.1-1.9-0.1-2.8V80.4c0-0.6,0-1.2,0-1.8
				c0.3-4.1,2.3-6.5,6.3-7.1c5.1-0.8,10.2-0.5,15.4-0.2c2.7,0.1,4.6,1.8,6.4,3.8c14.7,17,29.4,33.9,44.1,50.9c0.3,0.4,0.7,0.7,1,1.1
				c0.5,0.4,1,0.8,1.6,0.5c0.6-0.3,0.9-0.9,0.9-1.5v-1.7v-47c0-4.6,1.6-6.2,6.3-6.2h4c3.7,0.1,5.5,1.8,5.5,5.5
				C448.1,86.5,448.1,96.3,448.1,106.1"/>
			<path class="st7" d="M434.4,144.3c-2.4,0-4.8-0.1-7.1-0.2l-0.5,0c-2.7-0.1-5.1-1.4-7.4-4c-14.2-16.4-28.3-32.8-42.5-49.2
				c-0.7-0.9-1.5-1.7-2.3-2.6c-0.5-0.5-0.6-0.6-0.7-0.5c-0.1,0.1-0.1,0.6-0.1,0.8v47.8c0,5.7-2.1,7.8-7.8,7.8l-1.2,0
				c-1.1,0-2.1,0-3.2,0c-3.6-0.2-5.8-2.2-6.1-5.8c-0.1-1-0.1-2-0.1-2.9V80.4c0-0.6,0-1.3,0-1.9c0.3-4.8,2.8-7.6,7.4-8.2
				c5.2-0.8,10.4-0.5,15.4-0.2c3.5,0.2,5.8,2.4,7.4,4.2c14.7,17,29.4,33.9,44.1,50.9c0.3,0.4,0.6,0.7,0.9,1c0.2,0.2,0.3,0.3,0.4,0.3
				c0-0.1,0.1-0.2,0.1-0.3l0-48.7c0-5.3,2.2-7.5,7.5-7.5h4c4.4,0.1,6.7,2.4,6.7,6.7l0,10.5c0,6.3,0,12.6,0,18.9v28.6
				c0,5.7-2.6,8.6-8.2,9.3C438.9,144.2,436.6,144.3,434.4,144.3 M374,85.4c1.2,0,2,0.9,2.4,1.3c0.8,0.9,1.6,1.7,2.4,2.6
				c14.2,16.4,28.4,32.8,42.5,49.2c1.8,2.1,3.6,3.1,5.6,3.1l0.5,0c4.5,0.2,9.1,0.4,13.5-0.1c4.3-0.5,6-2.4,6-6.8v-28.6
				c0-6.3,0-12.6,0-18.9l0-10.5c0-3-1.3-4.2-4.3-4.3h-4c-4,0-5.1,1-5.1,5V126c0.1,1-0.5,2.1-1.5,2.6c-1.5,0.7-2.6-0.3-3-0.6
				c-0.4-0.4-0.8-0.8-1.2-1.2c-14.7-16.9-29.4-33.9-44-50.9c-1.9-2.3-3.6-3.3-5.5-3.4c-5.1-0.3-10.2-0.5-15.1,0.2
				c-3.4,0.5-5,2.3-5.3,5.9c0,0.6,0,1.1,0,1.7v55.1c0,0.9,0,1.8,0.1,2.7c0.2,2.4,1.4,3.5,3.8,3.6c1,0.1,2,0,3,0l1.2,0
				c4.3,0,5.3-1,5.3-5.3V88.7c0-0.8,0-2.5,1.7-3.1C373.4,85.4,373.7,85.4,374,85.4"/>
			<path class="st7" d="M575.5,108v-28c0-5.9,2.2-8.5,8-8.8c4.3-0.3,8.6-0.1,12.9,0c2.7,0.1,4.9,1.5,6.7,3.5
				c14.4,16.6,28.7,33.2,43.1,49.8c0.7,0.8,1.4,1.6,2.1,2.3c0.5,0.5,1.1,1.1,1.9,0.7c0.7-0.3,0.8-1,0.8-1.7v-1.7V77.5
				c0-4.8,1.6-6.4,6.3-6.4h4c3.7,0,5.5,1.8,5.5,5.5v27v31.3c0,4.7-2.1,7.3-6.7,7.8c-4.8,0.6-9.7,0.4-14.5,0.2
				c-2.7-0.1-4.8-1.7-6.6-3.7c-14.6-16.9-29.3-33.9-43.9-50.8c-0.2-0.2-0.4-0.5-0.7-0.7c-0.6-0.6-1.2-1.2-2.1-0.9
				c-0.9,0.3-0.9,1.3-0.9,2.1v39.5v9c0,3.9-1.8,5.7-5.7,5.7c-1.6,0-3.2,0-4.8,0c-3.5-0.1-5.3-1.9-5.3-5.4
				C575.5,127.8,575.5,117.9,575.5,108"/>
			<path class="st7" d="M653.2,144.3c-2.4,0-4.8-0.1-7.1-0.2l-0.6,0c-2.8-0.1-5.1-1.4-7.5-4.1c-14.6-16.9-29.3-33.9-43.9-50.8
				l-0.2-0.3c-0.1-0.1-0.3-0.3-0.4-0.4c-0.6-0.6-0.7-0.6-0.8-0.6c-0.1,0.1-0.1,0.6-0.1,0.9v48.5c0,4.6-2.4,6.9-6.9,6.9l-1.6,0
				c-1.1,0-2.2,0-3.2,0c-4.2-0.1-6.5-2.5-6.5-6.6c0-9.9,0-19.7,0-29.6v-28c0-6.7,2.8-9.7,9.2-10.1c4.5-0.3,9-0.1,13,0
				c2.8,0.1,5.4,1.4,7.6,3.9l43.1,49.8c0.7,0.8,1.3,1.5,2,2.3c0.1,0.1,0.4,0.4,0.5,0.4c0,0,0-0.2,0.1-0.6V77.5
				c0-5.5,2.1-7.6,7.6-7.6h4c4.4,0,6.7,2.4,6.7,6.8v58.2c0,5.4-2.6,8.4-7.8,9.1C657.8,144.2,655.5,144.3,653.2,144.3 M592.7,85.4
				c1.2,0,2,0.8,2.5,1.3c0.2,0.2,0.4,0.4,0.6,0.6l0.2,0.2c14.7,16.9,29.3,33.8,43.9,50.8c1.9,2.2,3.7,3.2,5.7,3.3l0.6,0
				c4.5,0.2,9.2,0.4,13.7-0.2c4-0.5,5.7-2.5,5.7-6.6V76.6c0-3-1.2-4.3-4.3-4.3h-4c-4,0-5.1,1.1-5.1,5.2v48.3c0,0.6,0,2.1-1.5,2.8
				c-1.6,0.8-2.8-0.4-3.3-0.9c-0.8-0.8-1.5-1.6-2.2-2.4l-43.1-49.8c-1.8-2-3.6-3-5.8-3.1c-3.9-0.1-8.4-0.2-12.8,0
				c-5.1,0.3-6.9,2.2-6.9,7.6v28c0,9.9,0,19.8,0,29.6c0,2.8,1.2,4.1,4.1,4.1c1.1,0,2.1,0,3.2,0l1.6,0c3.2,0,4.4-1.2,4.4-4.5V88.8
				c0-0.9,0-2.6,1.7-3.3C592.1,85.4,592.4,85.4,592.7,85.4"/>
			<path class="st7" d="M512.7,96.5V76.6c0-3.8,1.7-5.5,5.4-5.5c1.8,0,3.6,0,5.5,0c2.9,0.1,4.5,1.5,4.9,4.3c0.1,0.8,0.2,1.6,0.2,2.5
				c0,11,0,21.9,0,32.9c0,4.4-0.3,8.8-0.9,13.2c-1.7,10.6-6.9,15.9-18,18c-4.2,0.8-8.5,1.3-12.8,1.3c-9.4,0.1-18.7,0.4-28.1-0.3
				c-2.6-0.2-5.2-0.4-7.6-1.4c-2.9-1.2-4-3.6-3.4-7.4c0.4-2.5,2.3-3.8,5.4-3.9c9.6,0,19.3,0,28.9-0.1c3.2,0,6.4-0.3,9.5-0.9
				c7.6-1.6,10.4-4.9,10.7-12.8c0.1-3.4,0.2-6.7,0.3-10.1C512.7,103.2,512.7,99.9,512.7,96.5"/>
			<path class="st7" d="M482.4,144.7c-4.5,0-9.1-0.1-13.6-0.4c-2.7-0.2-5.4-0.4-8-1.5c-2.4-1-5.1-3.3-4.1-8.8
				c0.3-1.8,1.6-4.8,6.6-4.9c3.9,0,7.9,0,11.8,0c5.7,0,11.4,0,17.2-0.1c3.1,0,6.3-0.3,9.3-0.9c7.1-1.5,9.4-4.3,9.7-11.6
				c0.1-3.4,0.2-6.7,0.3-10c0-2.2,0-4.4,0-6.5l0-23.4c0-4.4,2.2-6.7,6.6-6.7l1.8,0c1.2,0,2.5,0,3.7,0c3.5,0.1,5.6,2,6.1,5.4
				c0.1,0.9,0.2,1.8,0.2,2.7l0,11c0,7.3,0,14.6,0,21.9c0,4.4-0.3,8.9-1,13.3c-1.7,11.1-7.4,16.8-19,19.1c-4.3,0.8-8.7,1.3-13,1.3
				l-5.2,0.1C488.6,144.7,485.5,144.7,482.4,144.7 M492.2,131.6c-5.7,0-11.4,0.1-17.2,0.1c-3.9,0-7.8,0-11.8,0c-3.7,0-4,2.2-4.1,2.8
				c-0.7,4.1,1,5.4,2.6,6.1c2.3,0.9,4.7,1.2,7.2,1.3c7.6,0.5,15.3,0.4,22.8,0.3l5.2-0.1c4.2,0,8.4-0.4,12.6-1.3
				c10.5-2.1,15.4-7,17-17c0.6-4.3,1-8.6,0.9-13c0-7.3,0-14.6,0-21.9l0-11c0-0.8,0-1.5-0.2-2.3c-0.4-2.2-1.5-3.2-3.8-3.3
				c-1.2,0-2.4,0-3.6,0l-1.8,0c-3,0-4.2,1.2-4.2,4.3l0,23.4c0,2.2,0,4.4,0,6.6c0,3.4-0.2,6.7-0.3,10.1c-0.3,8.4-3.5,12.2-11.7,14
				C498.7,131.3,495.4,131.6,492.2,131.6"/>
			<path class="st7" d="M559.9,107.1v29.8c0,4.6-1.6,6.1-6.2,6.1c-1.5,0-3.1,0-4.6,0c-3.3-0.1-5.1-1.9-5.2-5.2c0-0.9,0-1.8,0-2.6
				V77.6c0-4.9,1.6-6.5,6.4-6.5h4.1c3.7,0.1,5.5,1.9,5.5,5.5C559.9,86.8,559.9,97,559.9,107.1"/>
			<path class="st7" d="M550.6,144.3c-0.5,0-1.1,0-1.6,0c-3.9-0.2-6.2-2.4-6.4-6.4c0-0.6,0-1.2,0-1.8l0-0.9V77.6
				c0-5.6,2.1-7.7,7.6-7.7h4.1c4.3,0.1,6.7,2.5,6.7,6.8c0,6.4,0,12.8,0,19.2l0,41c0,5.2-2.1,7.4-7.4,7.4l-1.5,0
				C551.7,144.3,551.1,144.3,550.6,144.3 M554.4,72.4h-4.1c-4.1,0-5.2,1-5.2,5.2l0,58.5c0,0.6,0,1.1,0,1.7c0.1,2.7,1.4,3.9,4,4
				c1,0,2,0,3,0l1.6,0c3.9,0,4.9-1,4.9-4.9l0-41c0-6.4,0-12.8,0-19.2C558.6,73.7,557.4,72.4,554.4,72.4"/>
		</g>
	</g>
</g>
<g>
</g>
<g>
</g>
<g>
</g>
<g>
</g>
<g>
</g>
<g>
</g>
<g>
</g>
<g>
</g>
<g>
</g>
<g>
</g>
<g>
</g>
<g>
</g>
<g>
</g>
<g>
</g>
<g>
</g>
</svg>
